<svg xmlns="http://www.w3.org/2000/svg" viewBox="0 0 900 560" role="img" aria-labelledby="t d">
<title id="t">잎의 주요 부위</title><desc id="d">엽두, 엽신, 엽연, 주맥, 측맥, 엽저, 엽병, 탁엽과 겨드랑눈을 표시한 잎 구조도</desc>
<rect width="900" height="560" rx="24" fill="#f7fbf7"/><text x="40" y="48" font-family="sans-serif" font-size="26" font-weight="700" fill="#14532d">잎의 주요 부위</text>
<path d="M444 445 C250 402 186 234 420 76 C646 215 632 376 444 445Z" fill="#b7df94" stroke="#357a38" stroke-width="5"/>
<path d="M438 444 Q431 258 420 77" fill="none" stroke="#2f6b35" stroke-width="8"/><g fill="none" stroke="#4f8b4c" stroke-width="4">
<path d="M431 362 Q330 322 253 244"/><path d="M429 304 Q330 260 291 183"/><path d="M425 241 Q359 198 343 132"/><path d="M440 366 Q531 329 590 256"/><path d="M435 306 Q531 271 568 198"/><path d="M429 246 Q494 201 507 142"/></g>
<path d="M444 445 L448 516" stroke="#74512f" stroke-width="16" stroke-linecap="round"/><path d="M447 493 Q414 476 392 498" fill="#82bc65" stroke="#357a38" stroke-width="4"/><path d="M447 493 Q479 476 501 498" fill="#82bc65" stroke="#357a38" stroke-width="4"/><circle cx="470" cy="514" r="10" fill="#b7791f"/>
<g stroke="#475569" stroke-width="2.5" fill="none"><path d="M420 78 L292 60 L190 60"/><path d="M264 267 L157 267 L89 267"/><path d="M339 171 L217 145 L96 145"/><path d="M435 298 L605 114 L756 114"/><path d="M444 442 L629 399 L758 399"/><path d="M448 477 L631 474 L758 474"/><path d="M394 499 L321 525 L194 525"/><path d="M470 514 L593 530 L758 530"/></g>
<g font-family="sans-serif" font-size="22" fill="#1f2937"><text x="90" y="67"><tspan font-weight="700">엽두</tspan> · 잎 끝</text><text x="42" y="274"><tspan font-weight="700">엽연</tspan> · 가장자리</text><text x="42" y="152"><tspan font-weight="700">측맥</tspan></text><text x="766" y="121"><tspan font-weight="700">주맥</tspan></text><text x="766" y="406"><tspan font-weight="700">엽저</tspan> · 잎 밑</text><text x="766" y="481"><tspan font-weight="700">엽병</tspan> · 잎자루</text><text x="94" y="532"><tspan font-weight="700">탁엽</tspan></text><text x="766" y="537"><tspan font-weight="700">겨드랑눈</tspan></text><text x="500" y="224" font-size="27" font-weight="700" fill="#14532d">엽신(잎몸)</text></g>
</svg>
